<svg width="36" height="36" viewBox="0 0 36 36" fill="none" xmlns="http://www.w3.org/2000/svg">
<g clip-path="url(#clip0_2007_5378)">
<path d="M17.4358 10.833C16.1218 10.833 14.0878 9.33902 11.9458 9.39302C9.11985 9.42902 6.52785 11.031 5.06985 13.569C2.13585 18.663 4.31385 26.187 7.17585 30.327C8.57985 32.343 10.2358 34.611 12.4318 34.539C14.5378 34.449 15.3298 33.171 17.8858 33.171C20.4238 33.171 21.1438 34.539 23.3758 34.485C25.6438 34.449 27.0838 32.433 28.4698 30.399C30.0718 28.059 30.7378 25.791 30.7738 25.665C30.7198 25.647 26.3638 23.973 26.3098 18.933C26.2738 14.721 29.7478 12.705 29.9098 12.615C27.9298 9.71702 24.8878 9.39302 23.8258 9.32102C21.0538 9.10502 18.7318 10.833 17.4358 10.833ZM22.1158 6.58502C23.2858 5.18102 24.0598 3.21902 23.8438 1.27502C22.1698 1.34702 20.1538 2.39102 18.9478 3.79502C17.8678 5.03702 16.9318 7.03502 17.1838 8.94302C19.0378 9.08702 20.9458 7.98902 22.1158 6.58502Z" fill="white" fill-opacity="0.6"/>
</g>
<defs>
<clipPath id="clip0_2007_5378">
<rect width="36" height="36" fill="white"/>
</clipPath>
</defs>
</svg>
