<svg width="36" height="36" viewBox="0 0 36 36" fill="none" xmlns="http://www.w3.org/2000/svg">
<g clip-path="url(#clip0_2007_5379)">
<path d="M5.4135 2.72101L20.688 18L5.415 33.279C5.14341 33.1648 4.91164 32.9729 4.74884 32.7274C4.58603 32.4818 4.49946 32.1936 4.5 31.899V4.10101C4.50012 3.80674 4.58678 3.51901 4.74921 3.27363C4.91164 3.02825 5.14266 2.83607 5.4135 2.72101ZM21.7485 19.0605L25.2015 22.5135L8.796 32.013L21.7485 19.0605ZM26.547 14.2635L30.7575 16.7025C30.9848 16.8344 31.1735 17.0236 31.3046 17.2513C31.4358 17.4791 31.5048 17.7372 31.5048 18C31.5048 18.2628 31.4358 18.521 31.3046 18.7487C31.1735 18.9764 30.9848 19.1656 30.7575 19.2975L26.5455 21.7365L22.809 18L26.547 14.2635ZM8.796 3.98701L25.203 13.485L21.7485 16.9395L8.796 3.98701Z" fill="white" fill-opacity="0.6"/>
</g>
<defs>
<clipPath id="clip0_2007_5379">
<rect width="36" height="36" fill="white"/>
</clipPath>
</defs>
</svg>
