<svg viewBox="0 0 222 68" fill="none" xmlns="http://www.w3.org/2000/svg">
<g clip-path="url(#clip0_2007_7904)">
<path d="M20.4403 27.805C29.655 34.9725 26.6055 41.957 23.9289 44.5533C21.8053 36.0238 0.462614 34.3688 2.18436 51.5707C3.7511 67.2239 40.1314 68.7156 43.0313 42.8623C45.7812 18.3468 13.6634 17.5885 9.61105 3.5883C4.02028 12.4176 8.92197 18.8457 20.4403 27.805Z" fill="#FF1E1E"/>
<path d="M7.9287 29.9797C9.05396 26.7834 3.92097 26.9744 3.22518 21.7848C2.47581 23.149 1.17851 26.3601 1.98428 28.2906C2.99149 30.7038 7.17433 32.1225 7.9287 29.9797Z" fill="#FF1E1E"/>
<path d="M71.7206 11.6906H89.2963L87.9064 18.7966H77.7959L75.5316 30.4247H84.2298L82.8175 37.553H74.1193L70.4652 56.2872H63L71.7206 11.6906Z" fill="white"/>
<path d="M105.18 40.293L104.171 56.2872H96.6386L97.2215 47.0203H91.7291L88.6578 56.2872H81.1478L86.3936 40.3598L96.5489 11.6906H106.233L105.18 40.293ZM97.6474 39.892L98.4993 26.3927L94.0605 39.892H97.6474Z" fill="white"/>
<path d="M107.545 56.2872L116.266 11.6906H123.731L116.4 49.1811H126.511L125.121 56.2872H107.545Z" fill="white"/>
<path d="M149.12 47.3545C147.865 53.77 144.009 56.9851 137.552 57C132.157 57 129.459 54.7501 129.459 50.2504C129.459 49.3742 129.564 48.4089 129.773 47.3545L134.997 20.6232C136.252 14.2077 140.1 11 146.542 11C151.952 11 154.657 13.2499 154.657 17.7496C154.657 18.6258 154.553 19.5837 154.343 20.6232L153.11 26.9496H145.645L146.878 20.6232C147.207 18.96 146.639 18.1209 145.174 18.1061H145.13C143.68 18.1061 142.791 18.9451 142.462 20.6232L137.238 47.3545C136.91 49.0326 137.478 49.8717 138.942 49.8717C140.422 49.8717 141.326 49.0326 141.655 47.3545L142.888 41.0281H150.353L149.12 47.3545Z" fill="white"/>
<path d="M172.738 47.3545C171.482 53.77 167.626 56.9851 161.17 57C155.775 57 153.077 54.7501 153.077 50.2504C153.077 49.3742 153.182 48.4089 153.391 47.3545L158.614 20.6232C159.87 14.2077 163.718 11 170.16 11C175.57 11 178.275 13.2499 178.275 17.7496C178.275 18.6258 178.17 19.5837 177.961 20.6232L172.738 47.3545ZM170.496 20.6232C170.825 18.96 170.257 18.1209 168.792 18.1061H168.747C167.298 18.1061 166.408 18.9451 166.08 20.6232L160.856 47.3545C160.527 49.0326 161.095 49.8717 162.56 49.8717C164.04 49.8717 164.944 49.0326 165.273 47.3545L170.496 20.6232Z" fill="white"/>
<path d="M184.653 11.6906H192.029L192.701 33.6547L197.006 11.6906H204L195.279 56.2872H187.904L187.321 34.9245L183.151 56.2872H175.933L184.653 11.6906Z" fill="white"/>
</g>
<defs>
<clipPath id="clip0_2007_7904">
<rect width="221.836" height="68" fill="white"/>
</clipPath>
</defs>
</svg>
