<svg width="36" height="36" viewBox="0 0 36 36" fill="none" xmlns="http://www.w3.org/2000/svg">
<g clip-path="url(#clip0_2007_5380)">
<path d="M8.12701 29.2905C10.8573 31.6866 14.3674 33.0054 18 33C21.6339 33.005 25.1452 31.6863 27.8775 29.2905C30.2235 26.901 22.482 18.405 18 15.0195C13.5225 18.405 5.77501 26.901 8.12701 29.2905ZM22.077 11.283C25.203 14.985 31.4325 24.1755 29.673 27.423C31.8306 24.7587 33.0055 21.4329 33 18.0045C33.0028 16.0187 32.6095 14.0523 31.8433 12.2203C31.077 10.3883 29.9532 8.72752 28.5375 7.335C28.5375 7.335 28.5045 7.308 28.4355 7.2825C28.3222 7.2431 28.2029 7.22381 28.083 7.2255C27.3435 7.2255 25.602 7.7685 22.077 11.283ZM7.56751 7.284C7.49551 7.3095 7.46551 7.335 7.45951 7.3365C6.04487 8.72934 4.92192 10.3901 4.15624 12.2217C3.39056 14.0534 2.9975 16.0192 3.00001 18.0045C3.00001 21.573 4.24801 24.846 6.32701 27.4215C4.57501 24.165 10.8 14.982 13.926 11.2845C10.401 7.767 8.65651 7.227 7.92001 7.227C7.8003 7.22311 7.68099 7.24299 7.56901 7.2855V7.2825L7.56751 7.284ZM18 7.4385C18 7.4385 14.319 5.2845 11.445 5.1825C10.3155 5.142 9.62701 5.5515 9.54301 5.6055C12.2235 3.807 15.0735 3 17.9805 3H18C20.9175 3 23.757 3.807 26.457 5.6055C26.373 5.5485 25.689 5.1405 24.558 5.1825C21.6825 5.2845 18 7.4325 18 7.4325V7.4385Z" fill="white" fill-opacity="0.6"/>
</g>
<defs>
<clipPath id="clip0_2007_5380">
<rect width="36" height="36" fill="white"/>
</clipPath>
</defs>
</svg>
